<svg width="116" height="52" viewBox="0 0 116 52" fill="none" xmlns="http://www.w3.org/2000/svg">
<rect x="1" y="0.757812" width="114" height="23.0002" rx="3.5" fill="#EAF1FF"/>
<path d="M25.764 16.4378C27.72 16.4378 29.064 15.2978 29.52 13.7018L28.476 13.3178C28.128 14.4818 27.216 15.3578 25.764 15.3578C24.216 15.3578 22.74 14.2178 22.74 11.9978C22.74 9.77781 24.216 8.64981 25.764 8.64981C27.156 8.64981 28.092 9.36981 28.416 10.6538L29.508 10.2698C29.076 8.62581 27.708 7.56981 25.764 7.56981C23.652 7.56981 21.54 9.15381 21.54 11.9978C21.54 14.8418 23.568 16.4378 25.764 16.4378ZM31.9708 16.2578V7.56981H30.8428V16.2578H31.9708ZM35.0057 16.2578V10.4858H33.8897V16.2578H35.0057ZM33.6377 8.30181C33.6377 8.74581 33.9977 9.10581 34.4417 9.10581C34.8977 9.10581 35.2577 8.74581 35.2577 8.30181C35.2577 7.84581 34.8977 7.48581 34.4417 7.48581C33.9977 7.48581 33.6377 7.84581 33.6377 8.30181ZM39.3488 11.3498C40.3328 11.3498 40.7528 12.0098 40.8968 12.5738L41.9168 12.1418C41.6768 11.2658 40.8848 10.3058 39.3488 10.3058C37.7048 10.3058 36.4448 11.5658 36.4448 13.3658C36.4448 15.1178 37.6808 16.4378 39.3608 16.4378C40.8608 16.4378 41.6888 15.4658 41.9648 14.6378L40.9688 14.2058C40.8368 14.6618 40.4408 15.3938 39.3608 15.3938C38.4248 15.3938 37.5968 14.6858 37.5968 13.3658C37.5968 12.0218 38.4368 11.3498 39.3488 11.3498ZM48.4601 10.4858H46.9001L44.4041 13.0418V7.56981H43.2881V16.2578H44.4041V14.5178L45.2081 13.7138L47.0921 16.2578H48.5081L46.0001 12.9218L48.4601 10.4858ZM54.1048 8.66181H53.0728V9.59781C53.0728 10.1018 52.8088 10.4858 52.1848 10.4858H51.8728V11.5058H52.9768V14.6738C52.9768 15.7178 53.6008 16.3178 54.5848 16.3178C54.9688 16.3178 55.2568 16.2458 55.3528 16.2098V15.2498C55.2568 15.2738 55.0528 15.2978 54.9088 15.2978C54.3208 15.2978 54.1048 15.0338 54.1048 14.5058V11.5058H55.3528V10.4858H54.1048V8.66181ZM59.2718 15.4298C58.3118 15.4298 57.4718 14.7098 57.4718 13.3658C57.4718 12.0338 58.3118 11.3138 59.2718 11.3138C60.2318 11.3138 61.0718 12.0338 61.0718 13.3658C61.0718 14.7098 60.2318 15.4298 59.2718 15.4298ZM59.2718 10.3058C57.5438 10.3058 56.3198 11.6138 56.3198 13.3658C56.3198 15.1298 57.5438 16.4378 59.2718 16.4378C60.9998 16.4378 62.2238 15.1298 62.2238 13.3658C62.2238 11.6138 60.9998 10.3058 59.2718 10.3058ZM67.783 18.5378V15.4778C68.095 15.9938 68.767 16.4138 69.655 16.4138C71.347 16.4138 72.343 15.0818 72.343 13.3658C72.343 11.6858 71.419 10.3538 69.691 10.3538C68.755 10.3538 68.071 10.8098 67.759 11.3858V10.4858H66.667V18.5378H67.783ZM71.191 13.3658C71.191 14.5538 70.531 15.4058 69.487 15.4058C68.455 15.4058 67.771 14.5538 67.771 13.3658C67.771 12.2138 68.455 11.3498 69.487 11.3498C70.543 11.3498 71.191 12.2138 71.191 13.3658ZM74.9083 16.2578V7.56981H73.7803V16.2578H74.9083ZM76.4672 14.7098C76.4672 15.6218 77.2232 16.4378 78.3992 16.4378C79.4312 16.4378 80.0072 15.8858 80.2592 15.4778C80.2592 15.8978 80.2952 16.1138 80.3192 16.2578H81.4232C81.3992 16.1138 81.3512 15.8138 81.3512 15.3098V12.4178C81.3512 11.2898 80.6792 10.3058 78.9512 10.3058C77.7032 10.3058 76.7072 11.0738 76.5872 12.1778L77.6672 12.4298C77.7392 11.7578 78.1832 11.2658 78.9752 11.2658C79.8512 11.2658 80.2232 11.7338 80.2232 12.2978C80.2232 12.5018 80.1272 12.6818 79.7792 12.7298L78.2192 12.9578C77.2232 13.1018 76.4672 13.6778 76.4672 14.7098ZM78.5552 15.4898C77.9792 15.4898 77.6192 15.0818 77.6192 14.6498C77.6192 14.1338 77.9792 13.8578 78.4592 13.7858L80.2232 13.5218V13.7858C80.2232 15.0458 79.4792 15.4898 78.5552 15.4898ZM85.5324 11.3498C86.5164 11.3498 86.9364 12.0098 87.0804 12.5738L88.1004 12.1418C87.8604 11.2658 87.0684 10.3058 85.5324 10.3058C83.8884 10.3058 82.6284 11.5658 82.6284 13.3658C82.6284 15.1178 83.8644 16.4378 85.5444 16.4378C87.0444 16.4378 87.8724 15.4658 88.1484 14.6378L87.1524 14.2058C87.0204 14.6618 86.6244 15.3938 85.5444 15.3938C84.6084 15.3938 83.7804 14.6858 83.7804 13.3658C83.7804 12.0218 84.6204 11.3498 85.5324 11.3498ZM90.1451 12.7778C90.1931 12.0338 90.7691 11.3018 91.7171 11.3018C92.7371 11.3018 93.2771 11.9498 93.3011 12.7778H90.1451ZM93.4691 14.2778C93.2531 14.9258 92.7851 15.4418 91.8491 15.4418C90.8771 15.4418 90.1331 14.7218 90.1091 13.6898H94.4531C94.4651 13.6178 94.4771 13.4738 94.4771 13.3298C94.4771 11.5298 93.4811 10.3058 91.7051 10.3058C90.2531 10.3058 88.9451 11.5418 88.9451 13.3538C88.9451 15.3098 90.3011 16.4378 91.8491 16.4378C93.1931 16.4378 94.1171 15.6338 94.4411 14.6138L93.4691 14.2778Z" fill="#0045F6"/>
<rect x="1" y="0.757812" width="114" height="23.0002" rx="3.5" stroke="#0045F6" stroke-linecap="round" stroke-dasharray="6 6"/>
<path d="M58 27.2578L63.9772 49.5649L80.3071 33.235L58 27.2578ZM82.4142 48.8436L72.1421 38.5715L69.3137 41.3999L79.5858 51.672L82.4142 48.8436Z" fill="#373B46"/>
</svg>
