<svg width="121" height="83" viewBox="0 0 121 83" fill="none" xmlns="http://www.w3.org/2000/svg">
<rect x="0.858398" y="0.5" width="119" height="82" rx="3.5" fill="#FDF7F3"/>
<path d="M50.4612 19.6021C53.3933 16.6733 58.0396 16.5655 62.287 20.8082C65.9719 24.4888 65.1454 23.6638 66.3065 24.8235C69.1406 27.6542 69.6061 31.8936 69.2897 34.722L60.9252 26.3666C60.6318 26.0736 60.1565 26.0736 59.8635 26.3666C59.5705 26.6595 59.5705 27.1344 59.8635 27.4274L72.0286 39.5797C72.4683 40.0189 72.4683 40.7314 72.0286 41.1706C71.5889 41.6098 70.8755 41.6098 70.4358 41.1706L67.3373 38.0754C64.8858 38.8118 59.2804 38.9272 55.7671 35.5001H60.3698L53.4524 33.1967C51.1091 30.8563 51.747 31.5008 51.2816 31.0002H55.865L49.699 28.947C47.569 25.4567 48.0907 21.9702 50.4612 19.6021Z" fill="#D97D40"/>
<path d="M30.6224 61.68C32.5784 61.68 33.9224 60.54 34.3784 58.944L33.3344 58.56C32.9864 59.724 32.0744 60.6 30.6224 60.6C29.0744 60.6 27.5984 59.46 27.5984 57.24C27.5984 55.02 29.0744 53.892 30.6224 53.892C32.0144 53.892 32.9504 54.612 33.2744 55.896L34.3664 55.512C33.9344 53.868 32.5664 52.812 30.6224 52.812C28.5104 52.812 26.3984 54.396 26.3984 57.24C26.3984 60.084 28.4264 61.68 30.6224 61.68ZM36.8292 61.5V52.812H35.7012V61.5H36.8292ZM39.8641 61.5V55.728H38.7481V61.5H39.8641ZM38.4961 53.544C38.4961 53.988 38.8561 54.348 39.3001 54.348C39.7561 54.348 40.1161 53.988 40.1161 53.544C40.1161 53.088 39.7561 52.728 39.3001 52.728C38.8561 52.728 38.4961 53.088 38.4961 53.544ZM44.2072 56.592C45.1912 56.592 45.6112 57.252 45.7552 57.816L46.7752 57.384C46.5352 56.508 45.7432 55.548 44.2072 55.548C42.5632 55.548 41.3032 56.808 41.3032 58.608C41.3032 60.36 42.5392 61.68 44.2192 61.68C45.7192 61.68 46.5472 60.708 46.8232 59.88L45.8272 59.448C45.6952 59.904 45.2992 60.636 44.2192 60.636C43.2832 60.636 42.4552 59.928 42.4552 58.608C42.4552 57.264 43.2952 56.592 44.2072 56.592ZM53.3185 55.728H51.7585L49.2625 58.284V52.812H48.1465V61.5H49.2625V59.76L50.0665 58.956L51.9505 61.5H53.3665L50.8585 58.164L53.3185 55.728ZM58.9632 53.904H57.9312V54.84C57.9312 55.344 57.6672 55.728 57.0432 55.728H56.7312V56.748H57.8352V59.916C57.8352 60.96 58.4592 61.56 59.4432 61.56C59.8272 61.56 60.1152 61.488 60.2112 61.452V60.492C60.1152 60.516 59.9112 60.54 59.7672 60.54C59.1792 60.54 58.9632 60.276 58.9632 59.748V56.748H60.2112V55.728H58.9632V53.904ZM64.1302 60.672C63.1702 60.672 62.3302 59.952 62.3302 58.608C62.3302 57.276 63.1702 56.556 64.1302 56.556C65.0902 56.556 65.9302 57.276 65.9302 58.608C65.9302 59.952 65.0902 60.672 64.1302 60.672ZM64.1302 55.548C62.4022 55.548 61.1782 56.856 61.1782 58.608C61.1782 60.372 62.4022 61.68 64.1302 61.68C65.8582 61.68 67.0822 60.372 67.0822 58.608C67.0822 56.856 65.8582 55.548 64.1302 55.548ZM77.0694 54.924C76.8774 54 76.1094 52.812 74.1894 52.812C72.6174 52.812 71.3814 54.012 71.3814 55.344C71.3814 56.616 72.2454 57.408 73.4574 57.672L74.6694 57.936C75.5214 58.116 75.9414 58.644 75.9414 59.256C75.9414 60 75.3654 60.612 74.1894 60.612C72.9054 60.612 72.2334 59.736 72.1494 58.788L71.0214 59.148C71.1774 60.36 72.1494 61.68 74.2014 61.68C76.0134 61.68 77.1414 60.48 77.1414 59.16C77.1414 57.972 76.3494 57.084 74.9334 56.772L73.6614 56.496C72.9414 56.34 72.5694 55.872 72.5694 55.26C72.5694 54.468 73.2534 53.844 74.2134 53.844C75.4014 53.844 75.9174 54.684 76.0134 55.296L77.0694 54.924ZM79.6961 61.5V55.728H78.5801V61.5H79.6961ZM78.3281 53.544C78.3281 53.988 78.6881 54.348 79.1321 54.348C79.5881 54.348 79.9481 53.988 79.9481 53.544C79.9481 53.088 79.5881 52.728 79.1321 52.728C78.6881 52.728 78.3281 53.088 78.3281 53.544ZM81.1953 61.812C81.3393 63.048 82.4193 63.96 83.8593 63.96C86.0313 63.96 86.7513 62.532 86.7513 61.068V55.728H85.6353V56.532C85.3473 55.956 84.7473 55.62 83.8593 55.62C82.2753 55.62 81.2073 56.868 81.2073 58.428C81.2073 60.06 82.3233 61.224 83.8593 61.224C84.7233 61.224 85.3473 60.804 85.6233 60.276V61.104C85.6233 62.352 85.0713 62.976 83.8593 62.976C82.9833 62.976 82.3713 62.364 82.2873 61.56L81.1953 61.812ZM84.0273 60.276C83.0073 60.276 82.3593 59.556 82.3593 58.428C82.3593 57.312 83.0313 56.58 84.0273 56.58C84.9993 56.58 85.6713 57.312 85.6713 58.428C85.6713 59.544 84.9993 60.276 84.0273 60.276ZM89.6808 58.164C89.6808 57.288 90.1368 56.58 91.0248 56.58C92.0328 56.58 92.3688 57.228 92.3688 58.032V61.5H93.4968V57.84C93.4968 56.556 92.8128 55.56 91.4328 55.56C90.7608 55.56 90.0768 55.836 89.6568 56.556V55.728H88.5528V61.5H89.6808V58.164Z" fill="#D97D40"/>
<rect x="0.858398" y="0.5" width="119" height="82" rx="3.5" stroke="#D97D40" stroke-linecap="round" stroke-dasharray="6 6"/>
</svg>
